<?xml version="1.0" encoding="utf-8"?>
<!-- Generator: Adobe Illustrator 22.1.0, SVG Export Plug-In . SVG Version: 6.00 Build 0)  -->
<svg version="1.1" baseProfile="basic" id="Layer_1"
	 xmlns="http://www.w3.org/2000/svg" xmlns:xlink="http://www.w3.org/1999/xlink" x="0px" y="0px" width="90px" height="90px"
	 viewBox="0 0 90 90" xml:space="preserve">
<path fill="#D38700" d="M87.531,77.813H32.56c-1.363,0-2.469,1.105-2.469,2.469v3.192c20.66,1.252,40.67,1.327,59.908,0v-3.192
	C90,78.918,88.895,77.813,87.531,77.813z"/>
<path fill="#E8B436" d="M90,83.474c0,1.41-1.143,2.554-2.554,2.554H32.645c-1.41,0-2.554-1.143-2.554-2.554H90z"/>
<path fill="#D38700" d="M87.531,69.598H32.56c-1.363,0-2.469,1.105-2.469,2.469v3.192c20.66,1.252,40.67,1.327,59.908,0v-3.192
	C90,70.703,88.895,69.598,87.531,69.598z"/>
<path fill="#E8B436" d="M90,75.259c0,1.41-1.143,2.554-2.554,2.554H32.645c-1.41,0-2.554-1.143-2.554-2.554H90z"/>
<path fill="#D38700" d="M87.531,61.383H32.56c-1.363,0-2.469,1.105-2.469,2.469v3.192c20.66,1.252,40.67,1.327,59.908,0v-3.192
	C90,62.489,88.895,61.383,87.531,61.383z"/>
<path fill="#E8B436" d="M90,67.044c0,1.41-1.143,2.554-2.554,2.554H32.645c-1.41,0-2.554-1.143-2.554-2.554H90z"/>
<g>
	<path fill="#D38700" d="M87.531,53.169H32.56c-1.363,0-2.469,1.105-2.469,2.469v3.192c20.66,1.252,40.67,1.327,59.908,0v-3.192
		C90,54.274,88.895,53.169,87.531,53.169z"/>
</g>
<path fill="#E8B436" d="M90,58.83c0,1.41-1.143,2.554-2.554,2.554H32.645c-1.41,0-2.554-1.143-2.554-2.554H90z"/>
<path fill="#D38700" d="M87.531,44.954H32.56c-1.363,0-2.469,1.105-2.469,2.469v3.192c20.66,1.252,40.67,1.327,59.908,0v-3.192
	C90,46.059,88.895,44.954,87.531,44.954z"/>
<path fill="#E8B436" d="M90,50.615c0,1.41-1.143,2.554-2.554,2.554H32.645c-1.41,0-2.554-1.143-2.554-2.554H90z"/>
<path fill="#D38700" d="M87.531,36.739H32.56c-1.363,0-2.469,1.105-2.469,2.469V42.4c20.66,1.252,40.67,1.327,59.908,0v-3.192
	C90,37.845,88.895,36.739,87.531,36.739z"/>
<path fill="#E8B436" d="M90,42.4c0,1.41-1.143,2.554-2.554,2.554H32.645c-1.41,0-2.554-1.143-2.554-2.554H90z"/>
<path fill="#D38700" d="M87.531,28.525H32.56c-1.363,0-2.469,1.105-2.469,2.469v3.192c20.66,1.252,40.67,1.327,59.908,0v-3.192
	C90,29.63,88.895,28.525,87.531,28.525z"/>
<path fill="#E8B436" d="M90,34.186c0,1.41-1.143,2.554-2.554,2.554H32.645c-1.41,0-2.554-1.143-2.554-2.554H90z"/>
<g>
	<path fill="#D38700" d="M87.531,20.31H32.56c-1.363,0-2.469,1.105-2.469,2.469v3.192c20.66,1.252,40.67,1.327,59.908,0v-3.192
		C90,21.415,88.895,20.31,87.531,20.31z"/>
</g>
<path fill="#E8B436" d="M90,25.971c0,1.41-1.143,2.554-2.554,2.554H32.645c-1.41,0-2.554-1.143-2.554-2.554H90z"/>
<path fill="#D38700" d="M87.531,12.095H32.56c-1.363,0-2.469,1.105-2.469,2.469v3.192c20.66,1.252,40.67,1.327,59.908,0v-3.192
	C90,13.201,88.895,12.095,87.531,12.095z"/>
<path fill="#E8B436" d="M90,17.756c0,1.41-1.143,2.554-2.554,2.554H32.645c-1.41,0-2.554-1.143-2.554-2.554H90z"/>
<g>
	<path fill="#D38700" d="M87.531,3.881H32.56c-1.363,0-2.469,1.105-2.469,2.469v3.192c20.66,1.252,40.67,1.327,59.908,0V6.349
		C90,4.986,88.895,3.881,87.531,3.881z"/>
</g>
<path fill="#E8B436" d="M90,9.541c0,1.41-1.143,2.554-2.554,2.554H32.645c-1.41,0-2.554-1.143-2.554-2.554H90z"/>
<circle fill="#FFC843" cx="32.077" cy="54.043" r="32.077"/>
<circle fill="#D38700" cx="32.077" cy="54.043" r="24.948"/>
<path fill="#FFC843" d="M35.449,51.357h-6.745c-0.487,0-0.899-0.412-0.899-0.899v-5.233c0-0.487,0.412-0.899,0.899-0.899h6.745
	c0.487,0,0.899,0.412,0.899,0.899c0,1.38,1.119,2.5,2.5,2.5s2.5-1.119,2.5-2.5c0-3.253-2.646-5.899-5.899-5.899h-0.872v-1.71
	c0-1.381-1.119-2.5-2.5-2.5s-2.5,1.119-2.5,2.5v1.71h-0.873c-3.253,0-5.899,2.646-5.899,5.899v5.233
	c0,3.253,2.646,5.899,5.899,5.899h6.745c0.487,0,0.899,0.412,0.899,0.899v5.232c0,0.487-0.412,0.899-0.899,0.899h-6.745
	c-0.487,0-0.899-0.412-0.899-0.899c0-1.381-1.119-2.5-2.5-2.5s-2.5,1.119-2.5,2.5c0,3.253,2.646,5.899,5.899,5.899h0.873v2.082
	c0,1.381,1.119,2.5,2.5,2.5s2.5-1.119,2.5-2.5v-2.082h0.872c3.253,0,5.899-2.646,5.899-5.899v-5.232
	C41.348,54.004,38.702,51.357,35.449,51.357z"/>
<g>
</g>
<g>
</g>
<g>
</g>
<g>
</g>
<g>
</g>
<g>
</g>
</svg>
